<svg width="35px" id="instagram"
    xmlns="http://www.w3.org/2000/svg" viewBox="0 0 20 20">
    <path fill="#FFF" d="M12.7,6.7c-0.3,0-0.5,0.2-0.5,0.5c0,0.3,0.2,0.5,0.5,0.5c0.3,0,0.5-0.2,0.5-0.5C13.1,6.9,12.9,6.7,12.7,6.7z" />
    <path fill="#FFF" d="M9.9,7.4c-1.4,0-2.5,1.2-2.5,2.8c0,0.5,0.3,1.2,0.8,1.7c0.6,0.5,1.2,0.7,1.9,0.7c1.2-0.1,2.3-1.1,2.3-2.6 C12.6,8.5,11.4,7.4,9.9,7.4z M10,11.9c-1,0-1.9-0.9-1.9-1.9C8.1,9,9,8.1,10,8.1S11.9,9,11.9,10C11.9,11,11,11.9,10,11.9z" />
    <path fill="#FFF" d="M10,0.4c-5.3,0-9.6,4.3-9.6,9.6s4.3,9.6,9.6,9.6s9.6-4.3,9.6-9.6S15.3,0.4,10,0.4z M14.8,12.6 c0,0.9-0.4,1.5-1.2,1.9c-0.3,0.2-0.7,0.3-1,0.3c-1.8,0-3.5,0-5.3,0c0,0,0,0,0,0c-0.6,0-1.2-0.3-1.6-0.8c-0.2-0.3-0.4-0.6-0.5-1 c0-0.1,0-0.2,0-0.4c0-1,0-1.9,0-2.9c0-0.8,0-1.6,0-2.4c0-0.5,0.1-1,0.4-1.4C5.9,5.6,6.4,5.3,7,5.2c0.2,0,0.4,0,0.6,0 c1.7,0,3.3,0,5,0c0.4,0,0.7,0.1,1.1,0.2c0.4,0.2,0.7,0.5,1,0.9c0.2,0.3,0.3,0.7,0.3,1.1C14.8,9.1,14.8,10.9,14.8,12.6z" />
</svg>